<svg xmlns="http://www.w3.org/2000/svg" width="183.725" height="154.47" viewBox="0 0 183.725 154.47">
  <path fill="#fff" d="M0 .47h183v154H0z"/>
  <g fill="#a80030">
    <path d="M56.233 65.235c.114-.058.27-.307.02-.234-.42.11-.807.32-1.178.54-.065.31-.115.61-.15.92.354-.48.817-.87 1.308-1.22zm-2.347 3.23c.05.7.216 1.406.576 2.016-.235-.43-.303-.92-.393-1.4.06-.19.12-.4.24-.56.2-.05.17.32.22.46.05.3.07.61.18.9-.02-.41-.02-.84-.15-1.24-.07-.26-.34-.13-.51-.06-.07.02-.14-.02-.18-.08zm1.296 3.77c.17.216.324.466.568.603.202-.005.06-.313.02-.433-.062-.17-.306-.162-.436-.292-.126-.085-.29-.13-.152.123zm17.582 8.442c-.227.12-.435.288-.685.358-.08-.087-.31.343-.09.205.27-.163.52-.368.77-.563z"/>
    <path d="M72.037 81.007l.172-.217-.18.18v.037z"/>
    <path d="M51.234 74.905c-.425-.455-.72-1.015-.91-1.606-.106-.32-.205-.63-.322-.94l.278-.64c-.07-.29-.132-.62-.403-.78-.16-.12-.214-.33-.267-.51.16-1.07.277-2.14.54-3.18.05-.18.097-.36.196-.51.25-.14.145.3.14.43-.016.09-.016.36.028.14.127-.45.13-.91.223-1.36.113-.48.385-.91.66-1.31.183.15.183-.23.293-.32.744-1.33 2.072-2.26 3.51-2.7 2.35-.74 5.066-.32 7.012 1.21.4.31.763.67 1.083 1.07-.103-.1-.124-.37-.057-.4 1.488 1.52 2.192 3.79 1.74 5.88-.153.71-.454 1.39-.822 2.02-.995 1.65-2.803 2.82-4.74 2.95-.216.02-.433.02-.65.01 1.328.28 2.75.13 3.98-.45.708-.34 1.324-.84 1.846-1.42.86-.99 1.394-2.26 1.453-3.57.015-.41-.02-.81-.128-1.2.194-.63.01-1.29-.2-1.89-.147-.44-.367-.87-.444-1.33.04-.31-.247-.52-.383-.78-.833-1.2-1.898-2.29-3.238-2.91-1.33-.63-2.827-.77-4.28-.76-.493 0-.986.02-1.478.04-.232.05-.306-.29-.353-.37 1.13-.3 2.32-.33 3.46-.15-.7-.2-1.43-.37-2.17-.35.49-.17 1.02-.11 1.52-.06.62.06 1.24.21 1.86.25.1.02.37-.02.14-.07-1.32-.46-2.75-.46-4.12-.25-1.49.24-2.97.74-4.23 1.6-.61.43-1.18.97-1.53 1.64 1.06-.96 2.22-1.86 3.57-2.35.47-.1.96-.16 1.44-.1.09-.02.3.11.11.13-1.97.71-3.81 1.9-5.11 3.56-1.19 1.5-1.91 3.35-2.14 5.24-.07.53-.08 1.08-.19 1.61-.02.11-.09.23-.09.05.03-.24-.21-.29-.27-.47-.03-.09-.05-.25-.02-.07.06.28.1.63.37.79.27.18.3.54.36.83.02.17.07.38.06.53l-.71-.18c.38.34.49.86.61 1.33.2.83.38 1.7.93 2.38.11.1.31.33.11.42-.2-.07-.32-.27-.44-.43-.25-.35-.45-.74-.62-1.14.17.51.42 1.01.81 1.38.26.26.5.52.69.83-.36-.2-.73-.37-1.06-.62.53.37.89.93 1.11 1.536.13.34.22.702.385 1.032.105-.11.18-.38.39-.24.28.16.5.4.714.633.094.13.265.32.09.456.06.096.307.06.43.15.4.16.76.4 1.096.66-.08.206-.38-.03-.54-.05-.09-.046-.44-.11-.25.03.48.405 1.04.72 1.46 1.193.18.08.36.17.553.202.16-.01-.13-.343.14-.28.21.01.37.17.54.27.156.13.354.248.42.448.005.21-.25.24-.37.35-.14.1-.09.3.006.41-1.19-.34-2.26-.98-3.295-1.65-.313-.2-.62-.42-.93-.63.84.71 1.76 1.33 2.72 1.87-.05.18.248.32.35.46.15.15.36.27.44.47-.16.07-.36-.07-.53-.11-.07-.02-.16-.06-.046.01 1.58 1.06 3.44 1.64 5.31 1.9 1.61.21 3.25.2 4.84-.125-.3-.02-.61-.01-.9-.1-.16-.15.27-.11.38-.15.35-.04.71-.11 1.053-.01.16.07.32.22.496.097.34-.12.67-.324.85-.646.12-.2.26-.39.45-.53.94-.195 1.87-.454 2.75-.846.577-.25 1.15-.496 1.74-.71l-.33-.26c.47-.176.9-.46 1.21-.863.31-.41.66-.8 1.098-1.087.204-.166.05.17-.01.24-.124.2-.266.39-.423.563.31-.35.67-.63 1.08-.857.36-.21.64-.52.886-.85-.1.38-.27.73-.41 1.09.49-.463.86-1.04 1.32-1.534.073-.126.29-.18.25.033.024.01.11-.23.17-.317.89-1.77 1.86-3.52 2.42-5.433.12-.43.22-.87.27-1.312l.28.25c.02-.76.17-1.51.26-2.26.11-.87.24-1.74.16-2.61-.03-.27-.08-.55-.22-.784l.13-.18c-.14-.83-.45-1.62-.67-2.434-.03-.25-.08-.54.08-.76.05-.11.25-.02.15-.14-.42-1.73-1.04-3.4-1.74-5.03-.12-.19-.13-.497-.33-.606-.36-.226-.61-.57-.88-.88-.79-.953-1.51-1.954-2.368-2.85-2.4-3.21-5.81-5.57-9.54-6.97C59.94 44.98 56 44.45 52.18 45c-1.646.235-3.264.69-4.777 1.39-.94.375-1.75.996-2.54 1.61-.39.3-.77.61-1.16.92.66-.28 1.276-.64 1.886-1.01.52-.31 1.07-.565 1.64-.76.61-.165 1.25-.18 1.88-.09.41.05.82.107 1.23.11l-.67-.25c.51-.19 1.04-.37 1.59-.354.37-.01.73-.15 1.07-.29l.03.62c.35-.21.77-.21 1.17-.21.38.02.77.06 1.12.2l.46-.41c.63.13 1.28.26 1.84.58.14.07.29.22.36.306l-.07-.4c.73.2 1.46.34 2.18.55.33.1.66.18.95.37.23.168-.24.26-.23.267.36-.02.73-.03 1.07.09.11.04.29.04.24.2v.28c.68.16 1.36.37 1.97.72.09.06.29.18.27.24-.32-.08-.67-.09-.98.05.57.29 1.15.61 1.79.73.26.05.54.01.75-.16.19-.15.44-.2.67-.13.56.15 1.05.48 1.54.77.08.04-.07.11-.1.16-.11.08.186.08.24.14.233.1.464.2.69.32l.615.9c.58.102 1.05.5 1.46.89.89.872 1.6 1.91 2.3 2.94.51.75 1 1.51 1.52 2.242.345.582.44 1.264.59 1.914.125.6.264 1.205.46 1.792l.34-.2c.13.82.114 1.66.09 2.49-.055 1.23-.17 2.46-.51 3.65-.16.5-.34 1.02-.73 1.384-.216.094-.09.35-.1.534.03.243.12-.12.15-.19 0-.128.26-.408.214-.14-.065.732-.17 1.51-.59 2.13-.295.424-.73.74-1.01 1.17-.025.13-.17.367-.09.444.205-.22.33-.5.55-.7.19-.04.06.26-.03.33-.33.47-.58 1-.74 1.56-.15.53-.42 1.03-.776 1.46-.224.28-.47.55-.724.81-.212-.01.04-.29.09-.38.12-.19.27-.37.32-.6-.37.81-.983 1.47-1.63 2.07-1.16 1.05-2.492 1.907-3.94 2.506-.83.35-1.72.566-2.62.63-1.84.14-3.7-.15-5.44-.764-1.47-.53-2.87-1.33-3.93-2.5-.09.06-.18.09-.222-.05-.89-1.12-1.97-2.09-2.63-3.373-.078-.13-.18-.38-.21-.45l.21.8z"/>
    <path d="M61.632 59.412l-.247-.453c-.76-.19-1.51-.49-2.302-.48.79.33 1.624.54 2.412.87l.137.05zm-.832.754c.37.05.705.214 1.042.36-.493-.343-1.072-.522-1.632-.72l.59.36zM48.37 76.228c-.05-.14-.08-.292-.176-.41-.703-1.16-1.224-2.427-1.53-3.746.313 1.473.897 2.887 1.706 4.156zm24.507 4.806c-.304.5-.824.81-1.178 1.27.47-.474.97-.932 1.42-1.427l-.25.157zm7.27-17.994c-.284-.264-.453-.633-.503-1.012-.047.185-.085.374-.137.558.07.2.106.43.253.59.158.062.214-.366.386-.136zm-2.214-4.433c.187.485.448.934.702 1.386-.012-.36-.067-.764-.358-1.013-.124-.115-.253-.23-.344-.373z"/>
  </g>
  <path d="M102.046 101.564c-2.32-.75-6.46-1.37-9.202-1.38-8.224-.022-11.04-3.626-7.162-9.164 1.467-2.095 1.442-6.694-.08-14.562-.54-2.79-1.32-3.82-3.607-4.777-6.672-2.78-6.032-8.07.978-8.07 4.1 0 4.47-4.05.695-7.57-2.172-2.02-2.387-2.79-1.948-6.96.892-8.49 5.52-16.13 7.67-12.65.78 1.27 10.145 1.2 11.423-.08 4.883-4.88 14.91 12.12 16.633 28.21.36 3.35 1.256 8.63 1.994 11.72.738 3.1 1.58 7.62 1.872 10.06.512 4.28.663 4.47 4.46 5.45 8.56 2.23 8.618 2.26 8.618 4.67 0 2.12-.442 2.37-5.156 2.87-2.836.3-5.79.82-6.563 1.15-.77.33-3.51.8-6.09 1.04s-5.95.67-7.5.94c-1.54.28-4.71-.11-7.03-.86zm13.656-2.42c6.206-1.147 7.217-1.564 6.52-2.69-.262-.425-2.223-.38-4.357.098-4.053.91-6.13.4-3.063-.754 2.704-1.016 4.005-3.297 3.654-6.408-.175-1.547-.61-5.977-.967-9.844-.45-4.842-1.52-8.835-3.43-12.826-2.32-4.847-2.68-6.48-2.15-9.98 1.04-6.93-8.23-24.782-10.04-19.34-.18.537-1.74 1.155-3.46 1.373-1.72.218-3.91 1.29-4.86 2.385-1.01 1.16-3.31 2.203-5.53 2.5-11.84 1.587-3.09 14.634 9.48 14.135 5.55-.22 6.97-.027 6.24.854-.56.676-4.25.765-8.72.647-4.58-.12-7.28-.18-7.71 2.597-.18 1.13.27 2.08 5.83 2.18 3.02.06 3.67.01 3.72.45.08.71-5.4.83-11.4.9-4.07.05-5.91.46-6.27 1.41-1.04 2.71 1.67 3.45 13.53 3.91 6.47.25 10.57.59 10.86 1.03.32.49-.49 4.98-.59 10.13-.15 7.91-.46 9.63-2 11.05-5.84 5.45 1.64 8.62 14.65 6.22zm-10.375-44.91c-.318-.516-.157-.938.358-.938.516 0 1.2.422 1.517.938.32.515.158.937-.358.937-.515 0-1.198-.42-1.517-.93zm-12.187-.866c-2.555-.585-2.632-.705-.835-1.317 2.172-.73 5.054.03 5.054 1.35 0 .65-.99.21-1.62-.04-.58-.22-1.42.29-2.6.02zm11.72-1.947c.76-1.02 2.62-.38 2.98.17.28.44-.76.75-1.533.75-.773 0-1.756-.5-1.448-.91zm.76-2.51c.677-.27 1.486-.24 1.797.08.312.31-.242.54-1.23.5-1.093-.04-1.315-.26-.567-.56zm-19.092-2.46c0-.81.84-1.38 1.452-1.17 1.738.58 2.026 2.6.37 2.6-.816 0-1.822-.6-1.822-1.42zm13.356.63c-.33-.33-.375-.96-.1-1.4.8-1.29 2.952-.93 3.54.6.543 1.42-2.186 2.06-3.44.81zm-3.09 48.89c.57-1.03 1.717-2.92 2.552-4.22C103.434 85.43 102.54 73 97.998 73c-2.983 0-2.983 0-2.654 7.946.358 8.625-2.313 13.615-7.288 13.615-1.07 0-1.947.6-1.947 1.34 0 2.92 9.07 2.99 10.68.08zm35.252.49c0-.51-1.16-1.17-2.578-1.47-1.418-.3-3.547-.94-4.732-1.42-3.468-1.4-3.663-.96-.66 1.5 2.776 2.28 7.97 3.19 7.97 1.4zM93.45 84.25c1.377-6.57-.657-11.266-3.18-11.266-2.674 0-2.7 6.084-1.74 14.15.38 3.202 4.026 1.377 4.92-2.883z"/>
  <text x="9.325" y="21.66" style="line-height:125%" font-size="9.9" font-family="Times">
    I would have been stronger with Progynova
  </text>
  <text x="31.192" y="121.162" style="line-height:115%" font-size="40" font-family="Linux Biolinum G">
    <tspan x="31.192" y="121.162" font-size="27.5">Progynova</tspan><tspan x="31.192" y="142.642" font-size="16.25">GNU/Linux-libre</tspan>
  </text>
  <g>
    <path d="M141.904 149.537c-.01.01-.01 1.633-.03 2.056-.02.343-.05 1.078-.776 1.078-.746 0-.927-.85-.988-1.22-.07-.41-.07-.75-.07-.9 0-.48.03-1.83 1.17-1.83.342 0 .533.1.684.18l.01.66zm-2.923 1.19c0 2.842 1.52 2.842 1.74 2.842.63 0 1.03-.35 1.2-.94l.02.89c.19-.01.39-.03.7-.03.11 0 .2 0 .29.01.08 0 .16.01.25.02-.16-.32-.28-1.05-.28-2.62 0-1.54 0-4.13.13-4.91-.36.17-.67.28-1.36.34.27.29.27.44.27 1.77-.19-.06-.43-.13-.84-.13-1.8 0-2.09 1.57-2.09 2.74m5.47-.52c.01-.84.18-1.59.9-1.59.79 0 .85.86.83 1.58h-1.72zm2.72.1c0-1.18-.23-2.34-1.72-2.34-2.05 0-2.05 2.28-2.05 2.76 0 2.04.92 2.85 2.46 2.85.69 0 1.02-.1 1.2-.16-.01-.36.04-.59.1-.91-.21.13-.48.3-1.09.3-1.57 0-1.59-1.44-1.59-1.93h2.68l.02-.6m3.28.43c0 .93-.17 2.19-1.34 2.19-.16 0-.36-.03-.49-.06-.02-.36-.02-.99-.02-1.71 0-.87.09-1.32.16-1.55.22-.72.69-.73.78-.73.77 0 .92 1.06.92 1.84zm-2.89 1.1c0 .74 0 1.16-.12 1.49.42.16.93.25 1.55.25.39 0 1.53 0 2.15-1.26.3-.59.4-1.38.4-1.97 0-.36-.04-1.16-.33-1.66-.28-.48-.73-.72-1.22-.72-.96 0-1.25.8-1.4 1.22 0-.52.01-2.31.09-3.23-.65.3-1.05.35-1.49.39.4.16.4.82.4 2.99v2.48m5.9 1.68c-.2-.03-.34-.05-.63-.05-.32 0-.55.02-.78.05.1-.19.14-.29.17-.94.05-.9.06-3.3-.02-3.8-.05-.39-.14-.45-.28-.55.83-.08 1.06-.14 1.44-.32-.08.44-.09.66-.09 1.34-.02 3.48-.03 3.85.19 4.26m3.23-2.86c-.02.63-.03 1.08-.2 1.43-.21.45-.56.58-.82.58-.61 0-.74-.5-.74-1 0-.95.85-1.02 1.23-1.02h.538zm-2.77 1.24c0 .63.19 1.27.76 1.54.257.11.51.11.59.11.93 0 1.24-.69 1.43-1.11-.01.44 0 .71.03 1.06.18-.01.36-.03.67-.03.17 0 .33.02.508.03-.11-.17-.17-.27-.2-.67-.02-.38-.02-.765-.02-1.3l.01-2.056c0-.76-.2-1.52-1.715-1.52-1 0-1.58.306-1.87.46.12.22.22.412.317.85.394-.347.91-.528 1.43-.528.84 0 .84.553.84 1.34-.19-.01-.353-.03-.625-.03-1.28 0-2.124.492-2.124 1.85m8.57.61c.01.34.01.704.15 1-.22-.02-.35-.05-.762-.05-.24 0-.37.02-.57.05.04-.13.06-.18.08-.35.03-.23.05-1.01.05-1.28v-1.08c0-.477 0-1.16-.03-1.4-.02-.17-.07-.64-.656-.64-.57 0-.76.424-.833.767-.08.358-.08.74-.08 2.23.01 1.29.01 1.41.11 1.76-.17-.02-.384-.04-.686-.04-.24 0-.4.01-.603.04.07-.16.11-.24.13-.81.02-.55.06-3.27-.03-3.92-.05-.39-.15-.48-.26-.58.816-.04 1.08-.17 1.33-.3v1.07c.12-.316.37-1.01 1.38-1.01 1.26 0 1.27.92 1.28 1.52v3.035" overflow="visible"/>
    <path fill="#a80030" d="M153.54 146.497l-.836.835-.834-.835.834-.834.835.834" overflow="visible"/>
    <text x="31.8" y="152.268" style="line-height:125%" letter-spacing="-.402" font-size="11.25" font-family="Linux Biolinum G" transform="translate(97.866 2.04) scale(.995)">
      A &#xA0;&#xA0;&#xA0;&#xA0;&#xA0;&#xA0;&#xA0;&#xA0;&#xA0;&#xA0; fork
    </text>
  </g>
</svg>
